<svg xmlns="http://www.w3.org/2000/svg" xmlns:xlink="http://www.w3.org/1999/xlink" version="1.1" width="1000" height="1000" viewBox="0 0 1000 1000" xml:space="preserve">
<desc>Created with Fabric.js 3.5.0</desc>
<defs>
</defs>
<rect x="0" y="0" width="100%" height="100%" fill="#ffffff"/>
<g transform="matrix(2.1269 0 0 2.1269 499.999 499.999)" id="136695">
<path style="stroke: none; stroke-width: 1; stroke-dasharray: none; stroke-linecap: butt; stroke-dashoffset: 0; stroke-linejoin: miter; stroke-miterlimit: 4; is-custom-font: none; font-file-url: none; fill: rgb(0,0,0); fill-rule: nonzero; opacity: 1;" vector-effect="non-scaling-stroke" transform=" translate(-256, -256)" d="M 256 48 C 141.1 48 48 141.1 48 256 s 93.1 208 208 208 c 114.9 0 208 -93.1 208 -208 S 370.9 48 256 48 z M 256 446.7 c -105.1 0 -190.7 -85.5 -190.7 -190.7 c 0 -105.1 85.5 -190.7 190.7 -190.7 c 105.1 0 190.7 85.5 190.7 190.7 C 446.7 361.1 361.1 446.7 256 446.7 z" stroke-linecap="round"/>
</g>
<g transform="matrix(1 0 0 1 498.8589 500)" style="" id="840783">
		
<path xml:space="preserve" font-family="Roboto" font-size="500" font-style="normal" font-weight="bold" style="stroke: none; stroke-width: 1; stroke-dasharray: none; stroke-linecap: butt; stroke-dashoffset: 0; stroke-linejoin: miter; stroke-miterlimit: 4; is-custom-font: none; font-file-url: none; fill: rgb(0,0,0); fill-rule: nonzero; opacity: 1; white-space: pre;" d="M-12.08 100.19L-12.08 157.07L-255.74 157.07L-255.74 108.73L-140.75-13.83Q-117.07-39.71-105.71-58.99Q-94.36-78.28-94.36-95.62L-94.36-95.62Q-94.36-119.30-106.32-132.85Q-118.29-146.40-140.50-146.40L-140.50-146.40Q-164.43-146.40-178.22-129.92Q-192.02-113.44-192.02-86.58L-192.02-86.58L-262.82-86.58Q-262.82-119.05-247.31-145.91Q-231.81-172.76-203.49-188.02Q-175.17-203.28-139.28-203.28L-139.28-203.28Q-84.35-203.28-53.96-176.91Q-23.56-150.55-23.56-102.45L-23.56-102.45Q-23.56-76.08-37.23-48.74Q-50.90-21.40-84.11 14.98L-84.11 14.98L-164.92 100.19L-12.08 100.19ZM176.39-137.36L176.39-41.90L264.53-41.90L264.53 21.82L176.39 21.82L176.39 121.43L109.25 121.43L109.25 21.82L20.87 21.82L20.87-41.90L109.25-41.90L109.25-137.36L176.39-137.36Z"/></g>
</svg>