<?xml version="1.0" encoding="utf-8"?>
<!-- Svg Vector Icons : http://www.onlinewebfonts.com/icon -->
<!DOCTYPE svg PUBLIC "-//W3C//DTD SVG 1.1//EN" "http://www.w3.org/Graphics/SVG/1.1/DTD/svg11.dtd">
<svg version="1.1" xmlns="http://www.w3.org/2000/svg" xmlns:xlink="http://www.w3.org/1999/xlink" x="0px" y="0px" viewBox="0 0 256 256" enable-background="new 0 0 256 256" xml:space="preserve">
<metadata> Svg Vector Icons : http://www.onlinewebfonts.com/icon </metadata>
<g><g><g><path fill="#000000" d="M115.9,10.6c-40.4,4.2-76,29.1-93.8,65.6c-6.3,12.8-10,26.1-11.5,40.5c-2.1,21.4,1.9,43.3,11.5,63c21.7,44.2,68.7,70.5,117.2,65.7c41.1-4.2,76.6-28.8,94.7-65.8c16-32.8,16-70.4-0.1-103.3C212.4,31.9,164.9,5.5,115.9,10.6z M145.9,35.3c38.2,7.6,67.2,36.6,74.9,75.1c1.9,9.6,1.9,25.6,0,35.2c-6.8,34-30.7,61.3-63.1,72.1c-10.1,3.3-17.5,4.4-29.7,4.4c-9,0-12.1-0.2-17.6-1.3c-9.1-1.8-16.2-4.3-24.6-8.4c-9.3-4.6-16.9-10.1-24.5-17.6c-13.6-13.6-22.2-29.9-26.1-49.1c-1.9-9.5-1.9-25.6,0-35.2c1.8-9.2,4.3-16.3,8.4-24.6c4.7-9.4,10.1-16.9,17.6-24.5c13.6-13.6,30.4-22.5,48.8-25.9c8.7-1.7,9.9-1.7,20.2-1.5C136.7,34,141.5,34.4,145.9,35.3z"/><path fill="#000000" d="M112,79.2c-7,3.3-12.9,6.1-13.1,6.3c-0.5,0.5,3.3,17.1,3.8,17.1c0.3,0,4.6-1.9,9.7-4.4l9.1-4.4v39.5v39.5h11.2h11.2V123V73.1l-9.6,0.1l-9.6,0.1L112,79.2z"/></g></g></g>
</svg>