<svg xmlns="http://www.w3.org/2000/svg" xmlns:xlink="http://www.w3.org/1999/xlink" version="1.1" width="1000" height="1000" viewBox="0 0 1000 1000" xml:space="preserve">
<desc>Created with Fabric.js 3.5.0</desc>
<defs>
</defs>
<rect x="0" y="0" width="100%" height="100%" fill="#ffffff"/>
<g transform="matrix(2.1269 0 0 2.1269 499.999 499.999)" id="136695">
<path style="stroke: none; stroke-width: 1; stroke-dasharray: none; stroke-linecap: butt; stroke-dashoffset: 0; stroke-linejoin: miter; stroke-miterlimit: 4; is-custom-font: none; font-file-url: none; fill: rgb(0,0,0); fill-rule: nonzero; opacity: 1;" vector-effect="non-scaling-stroke" transform=" translate(-256, -256)" d="M 256 48 C 141.1 48 48 141.1 48 256 s 93.1 208 208 208 c 114.9 0 208 -93.1 208 -208 S 370.9 48 256 48 z M 256 446.7 c -105.1 0 -190.7 -85.5 -190.7 -190.7 c 0 -105.1 85.5 -190.7 190.7 -190.7 c 105.1 0 190.7 85.5 190.7 190.7 C 446.7 361.1 361.1 446.7 256 446.7 z" stroke-linecap="round"/>
</g>
<g transform="matrix(1 0 0 1 498.8589 500)" style="" id="840783">
		
<path xml:space="preserve" font-family="Roboto" font-size="500" font-style="normal" font-weight="bold" style="stroke: none; stroke-width: 1; stroke-dasharray: none; stroke-linecap: butt; stroke-dashoffset: 0; stroke-linejoin: miter; stroke-miterlimit: 4; is-custom-font: none; font-file-url: none; fill: rgb(0,0,0); fill-rule: nonzero; opacity: 1; white-space: pre;" d="M151.12-28.48L151.12-12.61Q151.12 39.88 132.57 79.43Q114.01 118.98 79.47 140.47Q44.92 161.95 0.24 161.95L0.24 161.95Q-43.95 161.95-78.61 140.71Q-113.28 119.47-132.32 80.04Q-151.37 40.61-151.61-10.65L-151.61-10.65L-151.61-28.23Q-151.61-80.72-132.69-120.64Q-113.77-160.56-79.22-181.92Q-44.68-203.28-0.24-203.28Q44.19-203.28 78.74-181.92Q113.28-160.56 132.20-120.64Q151.12-80.72 151.12-28.48L151.12-28.48ZM76.90-11.39L76.90-28.72Q76.90-84.63 56.88-113.68Q36.87-142.73-0.24-142.73L-0.24-142.73Q-37.11-142.73-57.13-114.05Q-77.15-85.36-77.39-29.94L-77.39-29.94L-77.39-12.61Q-77.39 41.84-57.37 71.86Q-37.35 101.89 0.24 101.89L0.24 101.89Q37.11 101.89 56.88 72.96Q76.66 44.03 76.90-11.39L76.90-11.39Z"/></g>
</svg>