<svg version="1.1" id="Layer_1" xmlns="http://www.w3.org/2000/svg" xmlns:xlink="http://www.w3.org/1999/xlink" x="0px" y="0px" width="100%" viewBox="0 0 512 512" enable-background="new 0 0 512 512" xml:space="preserve" transform="matrix(-1,0,0,1,0,0)">
<path fill="#000000" opacity="1.000000" stroke="none" d="
M513.000000,318.531342 
	C511.478149,324.421051 508.027618,326.559082 502.304474,326.456726 
	C487.316895,326.188538 472.319977,326.479828 457.329773,326.297455 
	C453.580139,326.251862 452.136475,327.674805 451.282928,331.187134 
	C445.975159,353.027649 424.965637,369.161713 402.393494,369.385010 
	C382.126801,369.585449 367.151886,360.429199 356.179779,344.005554 
	C353.505402,340.002289 351.862671,335.329529 350.860565,330.659973 
	C350.125092,327.232941 348.494354,326.198883 345.405609,326.369019 
	C344.741455,326.405579 344.073273,326.366577 343.406952,326.366577 
	C285.269623,326.367859 227.132202,326.407074 168.995071,326.298157 
	C164.458466,326.289673 162.151657,327.156433 160.678223,332.199219 
	C151.789429,362.621124 118.450928,378.111450 89.822052,365.124695 
	C74.999130,358.400696 65.100830,346.866547 60.856316,331.001007 
	C59.874290,327.330322 58.237640,326.257874 54.646935,326.293976 
	C39.322857,326.448059 23.996233,326.330688 8.670934,326.399780 
	C6.082734,326.411438 3.707034,326.122467 1.349547,324.178345 
	C1.000000,308.645782 1.000000,293.291534 1.000000,277.468658 
	C4.194275,274.728577 7.638388,273.186005 11.668830,273.663452 
	C15.773211,274.149689 16.799192,272.127899 16.706509,268.380707 
	C16.512907,260.553680 16.625454,252.718231 16.664497,244.886490 
	C16.743778,228.983307 30.663940,213.918762 46.472816,212.691666 
	C64.474876,211.294312 82.496994,210.135071 100.482918,208.558838 
	C109.400093,207.777359 118.299171,206.869751 127.250694,206.602737 
	C133.343796,206.420975 135.761292,201.148193 139.029648,197.509338 
	C148.208969,187.289429 156.894272,176.625717 165.770447,166.133667 
	C167.698059,163.855133 169.593750,161.549484 171.530457,159.278748 
	C179.764328,149.624710 190.503357,145.666779 202.902100,145.656235 
	C237.229156,145.627075 271.556305,145.681488 305.883240,145.605392 
	C309.761292,145.596786 313.509674,146.185104 317.162659,147.207825 
	C328.088776,150.266815 334.937531,159.183853 336.344025,171.301437 
	C337.526337,181.488052 339.037689,191.636383 340.391541,201.803253 
	C340.726440,204.318283 341.978210,205.730331 344.666382,205.639389 
	C346.330536,205.583069 347.998596,205.651367 349.664917,205.651413 
	C393.990173,205.652649 438.315430,205.648804 482.640686,205.654694 
	C493.369537,205.656113 496.311371,208.554642 496.330658,219.243576 
	C496.360107,235.573868 496.447449,251.905579 496.255249,268.233704 
	C496.207489,272.294281 497.348541,273.836090 501.579254,273.765991 
	C506.396606,273.686188 510.847717,275.048950 512.812866,280.707855 
	C513.000000,293.354218 513.000000,305.708466 513.000000,318.531342 
M306.499939,307.649200 
	C316.160126,307.649689 325.823120,307.515137 335.479095,307.717010 
	C339.348755,307.797882 340.822296,306.544586 340.723907,302.570709 
	C340.505432,293.748535 340.649994,284.917175 340.662720,276.089539 
	C340.693481,254.743378 355.660095,239.715179 377.003052,239.659821 
	C393.159180,239.617920 409.315582,239.619507 425.471710,239.661774 
	C442.545258,239.706421 455.077728,249.121277 460.492554,265.318481 
	C461.392670,268.011078 459.693054,272.054260 463.112152,273.265076 
	C465.792725,274.214386 469.033234,273.582733 472.024994,273.652588 
	C472.191467,273.656464 472.360413,273.634583 472.524323,273.655396 
	C476.444366,274.153900 477.770233,272.441681 477.715729,268.525726 
	C477.534973,255.536606 477.538208,242.541962 477.713989,229.552719 
	C477.765259,225.763626 476.789124,224.274918 472.681061,224.281998 
	C405.391327,224.398148 338.101288,224.395554 270.811462,224.314026 
	C266.775330,224.309128 265.203613,225.499634 265.275391,229.723999 
	C265.490387,242.378830 265.514099,255.042938 265.261292,267.696442 
	C265.171265,272.200714 266.434448,273.843933 271.156097,273.747467 
	C284.808197,273.468567 298.469757,273.655182 312.127625,273.656921 
	C325.653168,273.658630 325.523468,273.656586 325.426941,287.219879 
	C325.399323,291.095703 324.227936,292.460815 320.278687,292.414734 
	C305.457001,292.241760 290.631653,292.296936 275.808319,292.381195 
	C264.061157,292.447968 265.547363,290.645569 265.294983,303.165314 
	C265.222595,306.755463 266.660889,307.738678 270.023407,307.700073 
	C281.847565,307.564331 293.674194,307.648132 306.499939,307.649200 
M209.499878,307.647522 
	C218.663315,307.648254 227.826981,307.690155 236.990128,307.638855 
	C247.599762,307.579468 246.424164,308.959381 246.733398,298.054504 
	C246.856934,293.697968 245.467636,292.217804 241.057251,292.287872 
	C227.065521,292.510284 213.067947,292.367920 199.072632,292.360748 
	C186.527863,292.354309 186.699203,292.349121 186.563995,279.557892 
	C186.516693,275.082062 187.753616,273.471710 192.437912,273.546265 
	C208.595093,273.803467 224.760315,273.529938 240.919144,273.728912 
	C245.198380,273.781586 246.826248,272.561279 246.735657,268.082642 
	C246.486328,255.758484 246.659729,243.425964 246.649323,231.096756 
	C246.643692,224.417389 246.628448,224.380585 240.067795,224.377014 
	C212.410385,224.362000 184.752960,224.369400 157.095551,224.371780 
	C146.350525,224.372696 146.588989,224.384521 146.222687,235.279343 
	C146.075729,239.650284 147.583023,241.638382 151.467957,243.444931 
	C164.390030,249.453918 171.151581,259.802368 171.327148,274.166351 
	C171.441177,283.495178 171.570709,292.834045 171.253830,302.153503 
	C171.100052,306.675995 172.718933,307.844696 177.012619,307.735168 
	C187.502289,307.467560 198.003372,307.647491 209.499878,307.647522 
M368.362061,313.907318 
	C368.357574,315.237854 368.382294,316.569214 368.344177,317.898804 
	C367.869415,334.465576 381.936279,349.310944 399.520142,350.575348 
	C419.904572,352.041138 438.664215,331.373230 433.466217,309.951080 
	C430.029663,295.788361 416.280365,284.393829 402.362366,284.356934 
	C384.667511,284.310028 372.138214,294.879395 368.362061,313.907318 
M121.199257,348.688141 
	C135.972473,344.026154 144.871872,330.115845 143.721909,314.117249 
	C142.765564,300.812103 132.004333,288.095581 117.263138,284.669769 
	C106.032005,282.059692 90.401627,288.469421 83.608002,298.728607 
	C76.034256,310.165894 76.359306,326.036011 84.585449,337.175720 
	C91.923859,347.113281 107.400711,354.093750 121.199257,348.688141 
M162.838730,199.290054 
	C161.397476,201.025375 159.340744,202.377274 159.165878,205.255325 
	C160.022018,205.392639 160.797272,205.625107 161.572723,205.625702 
	C188.401611,205.646576 215.230652,205.607864 242.059280,205.693451 
	C245.568268,205.704636 246.729797,204.300262 246.689743,200.920944 
	C246.567291,190.590805 246.452454,180.252762 246.740753,169.929138 
	C246.867905,165.375626 245.069138,164.239655 240.877365,164.301117 
	C228.215576,164.486816 215.549118,164.392014 202.884689,164.345322 
	C195.338364,164.317490 189.576050,167.573761 184.845413,173.326691 
	C177.790115,181.906631 170.507492,190.299637 162.838730,199.290054 
M301.499207,205.649734 
	C306.487885,205.648422 311.476990,205.686111 316.465149,205.634766 
	C321.414185,205.583832 322.148407,204.491714 321.351532,199.600540 
	C320.024963,191.457993 318.670074,183.309952 317.725494,175.118286 
	C316.886871,167.845215 314.055176,164.536469 306.710968,164.411392 
	C294.409119,164.201874 282.100800,164.404846 269.795929,164.322983 
	C266.669281,164.302185 265.280304,165.394333 265.315277,168.682053 
	C265.430298,179.489624 265.443665,190.300369 265.304657,201.107422 
	C265.259308,204.634399 266.704834,205.733566 270.069153,205.690094 
	C280.211121,205.559006 290.355896,205.646713 301.499207,205.649734 
M95.504669,239.649323 
	C103.496536,239.648911 111.488396,239.649887 119.480263,239.647720 
	C127.659683,239.645493 127.659683,239.644135 127.646477,231.542480 
	C127.636459,225.395981 126.972214,224.776001 121.200111,225.423660 
	C104.246773,227.325882 87.213455,228.193558 70.205528,229.400482 
	C63.110950,229.903931 56.010277,230.520615 48.965794,231.478592 
	C40.767731,232.593460 35.481136,238.964066 35.366459,247.370743 
	C35.293793,252.697678 35.283131,258.027344 35.361786,263.354065 
	C35.533951,275.013641 33.478802,273.456787 45.698322,273.690674 
	C48.836906,273.750732 50.252068,273.008087 50.834209,269.412537 
	C52.791592,257.322937 59.415386,248.543518 70.627205,243.145828 
	C78.304840,239.449570 86.365509,239.551361 95.504669,239.649323 
M442.633362,273.052002 
	C440.659882,263.829224 435.206268,258.684235 425.750366,258.495544 
	C409.257416,258.166504 392.746246,258.092926 376.256287,258.484192 
	C363.544342,258.785828 355.601837,271.907074 360.385590,283.613556 
	C387.594452,259.309448 414.772491,258.295441 441.856873,283.854248 
	C442.163391,283.425690 442.502350,283.171509 442.508911,282.909088 
	C442.583496,279.912018 442.607452,276.913666 442.633362,273.052002 
M73.273323,281.617462 
	C84.035027,270.111298 97.324982,265.156250 113.014313,265.580505 
	C128.708557,266.004852 141.181976,272.886292 151.788193,284.501373 
	C155.423706,267.819794 147.997391,258.410675 132.016495,258.382599 
	C117.695885,258.357422 103.369713,258.614471 89.056076,258.295258 
	C73.697067,257.952698 66.382767,269.861664 70.456154,285.367798 
	C71.435120,283.987885 72.111740,283.034180 73.273323,281.617462 
M465.860443,292.346863 
	C462.337006,291.945496 461.025391,293.596741 461.321991,297.009674 
	C461.494293,298.992310 461.490631,301.014099 461.321136,302.997314 
	C461.030426,306.398163 462.298767,307.821259 465.854248,307.703094 
	C472.006897,307.498596 478.172302,307.718719 484.330597,307.633759 
	C495.747498,307.476257 494.532654,309.685181 494.689972,296.734467 
	C494.729645,293.469971 493.430176,292.303986 490.255615,292.346252 
	C482.433014,292.450439 474.607788,292.359039 465.860443,292.346863 
M36.491146,292.367401 
	C33.992985,292.367462 31.493771,292.320190 28.996838,292.375641 
	C16.798134,292.646454 18.517855,289.945618 18.322660,303.866486 
	C18.283062,306.690399 19.483381,307.695740 22.214884,307.661682 
	C29.208551,307.574493 36.204163,307.647766 43.198997,307.648468 
	C50.641449,307.649200 50.641453,307.644989 50.651672,300.354065 
	C50.662865,292.368805 50.662861,292.368469 42.480663,292.364929 
	C40.815224,292.364197 39.149784,292.366821 36.491146,292.367401 
z"></path>
<path fill="#000000" opacity="1.000000" stroke="none" d="
M214.998016,239.647858 
	C219.496216,239.658005 223.496567,239.734680 227.493820,239.655853 
	C230.233871,239.601837 231.184937,240.791809 231.378830,243.519547 
	C232.433701,258.358948 232.496582,258.356445 217.983139,258.365448 
	C211.984497,258.369171 205.983566,258.262634 199.988159,258.400665 
	C196.769958,258.474731 195.547760,257.214752 195.622757,253.994431 
	C196.031250,236.453964 193.016022,240.108612 209.000198,239.655579 
	C210.831680,239.603668 212.665878,239.648239 214.998016,239.647858 
z"></path>
</svg>