<svg version="1.1" id="Layer_1" xmlns="http://www.w3.org/2000/svg" xmlns:xlink="http://www.w3.org/1999/xlink" x="0px" y="0px"
	 width="100%" viewBox="0 0 512 512" enable-background="new 0 0 512 512" xml:space="preserve">
<path fill="#000000" opacity="1.000000" stroke="none" 
	d="
M1.000000,208.468658 
	C6.007597,197.927475 15.474525,193.504089 24.924385,189.000549 
	C31.229954,185.995468 37.339481,182.563889 43.719559,179.735565 
	C48.078503,177.803207 50.511635,175.181549 49.669769,170.215805 
	C49.532536,169.406326 49.646236,168.553467 49.651958,167.720703 
	C49.697495,161.089737 51.591125,158.255768 58.146702,156.804245 
	C71.232452,153.906815 84.347954,151.085724 97.543785,148.758209 
	C113.831902,145.885269 130.260223,144.065567 146.745422,142.485611 
	C177.135574,139.573013 207.574875,140.353134 237.959061,140.933563 
	C259.860229,141.351929 280.910095,147.507248 300.170563,158.212723 
	C316.828491,167.471664 332.995819,177.614899 349.353333,187.411789 
	C354.188690,190.307785 358.986877,193.273438 363.702484,196.359375 
	C367.329468,198.732910 371.511108,197.744263 375.355774,198.266403 
	C387.153229,199.868576 399.102905,200.314545 410.933655,201.714951 
	C427.975952,203.732239 445.472687,203.065292 461.916107,208.788651 
	C487.697510,217.762207 504.521210,235.429764 511.589233,262.036224 
	C511.886536,263.155457 512.355591,264.229126 512.872314,265.661987 
	C513.000000,270.024536 513.000000,274.049103 513.000000,278.536804 
	C510.481628,291.143097 508.052277,303.305634 505.407990,315.421234 
	C504.052521,321.631744 501.729279,323.580261 495.321167,323.246002 
	C490.160004,322.976837 488.298645,324.436432 486.715576,329.883118 
	C479.811737,353.635864 463.963104,367.989807 439.276306,372.442139 
	C412.407318,377.288055 385.750519,361.842102 375.383667,335.331757 
	C375.202728,334.869110 374.972443,334.422516 374.828308,333.949188 
	C371.602661,323.355560 371.604309,323.359497 360.519745,323.359192 
	C292.211365,323.357361 223.902863,323.405304 155.594925,323.234192 
	C150.992676,323.222656 149.353531,324.827545 148.287491,329.003815 
	C142.394882,352.088470 127.227325,366.663208 104.497124,371.790649 
	C82.416481,376.771545 62.979496,370.605957 47.654373,352.926422 
	C39.746391,343.803589 35.116756,333.519775 33.688728,321.697662 
	C33.413502,319.419189 32.040184,318.171783 30.687489,316.739624 
	C22.579891,308.155579 13.547784,300.474945 6.069746,291.262634 
	C3.918093,288.612030 2.363822,285.792114 1.131428,282.318726 
	C1.000000,257.645782 1.000000,233.291550 1.000000,208.468658 
M490.296631,298.320190 
	C490.668915,296.539581 491.085480,294.766876 491.406311,292.977051 
	C493.350983,282.127380 496.705444,271.513062 491.748199,260.320465 
	C487.650330,251.068222 486.294098,249.356567 476.328888,249.340912 
	C475.662262,249.339859 474.995605,249.339325 474.328979,249.338882 
	C462.541809,249.331085 462.525818,249.330917 462.675262,237.302414 
	C462.706207,234.814590 461.920380,231.930984 465.903137,231.064301 
	C461.936279,227.893066 457.836792,226.475189 453.693878,225.392456 
	C437.563843,221.176910 420.856628,221.512222 404.447205,219.454391 
	C392.130890,217.909882 379.687988,217.403534 367.322266,216.217880 
	C351.670593,214.717148 336.047638,212.918182 320.397888,211.395615 
	C308.362549,210.224716 296.294678,209.387573 284.259827,208.211761 
	C268.778809,206.699249 253.335938,204.743011 237.832809,203.544510 
	C233.677689,203.223297 229.433960,201.594513 224.669571,202.948685 
	C227.512863,221.644440 230.618286,240.071655 232.949448,258.596313 
	C233.656342,264.213593 236.180161,264.735870 240.733429,264.720276 
	C275.564911,264.601135 310.396973,264.656891 345.228851,264.656281 
	C356.397949,264.656067 356.397949,264.653320 356.336182,275.754669 
	C356.299561,282.337128 356.299561,282.355225 349.764008,282.356873 
	C314.932129,282.365631 280.100250,282.364594 245.268356,282.366882 
	C242.637009,282.367035 240.005661,282.366882 237.124100,282.366882 
	C237.416382,288.503479 238.703323,294.000214 239.096695,299.536865 
	C239.470459,304.797272 241.739014,305.743042 246.367325,305.727936 
	C286.531891,305.596863 326.697235,305.601929 366.861786,305.737976 
	C370.669373,305.750885 372.625610,304.754700 373.433197,300.894135 
	C378.983307,274.362671 405.304657,253.168808 436.013245,256.540863 
	C457.042175,258.850006 472.164062,269.243042 482.301331,287.520813 
	C485.081268,292.533173 486.295441,298.166473 488.763885,304.067291 
	C489.288696,301.804657 489.621704,300.368774 490.296631,298.320190 
M147.113342,194.506180 
	C138.032089,193.771713 128.949020,193.058685 119.870186,192.295334 
	C113.707512,191.777161 108.870346,189.463074 106.171158,183.323090 
	C104.448868,179.405289 101.672722,175.964294 99.709030,172.135193 
	C97.819328,168.450348 95.164490,167.515640 91.295837,168.441208 
	C85.340492,169.866028 79.366234,171.306473 73.322052,172.230362 
	C69.595009,172.800018 68.056442,174.299988 68.313614,178.065857 
	C68.812973,185.378143 65.538101,190.103165 58.767223,193.250351 
	C46.703510,198.857681 34.924973,205.078461 23.024935,211.038223 
	C21.741743,211.680862 20.086140,211.968246 20.346729,214.671844 
	C29.078442,214.671844 37.840488,214.761688 46.599018,214.625549 
	C49.888775,214.574417 51.609795,215.491714 51.380421,219.119720 
	C51.170551,222.439194 51.199825,225.789093 51.369774,229.112991 
	C51.539558,232.433655 50.049778,233.435730 46.905041,233.383804 
	C38.908897,233.251755 30.906624,233.468506 22.911451,233.310471 
	C19.430611,233.241653 18.201529,234.536133 18.287956,237.993301 
	C18.471140,245.320694 18.517336,252.661362 18.278677,259.985474 
	C18.151136,263.899506 19.853952,264.761810 23.355850,264.707733 
	C33.518154,264.550720 43.687088,264.520477 53.848030,264.717926 
	C58.311172,264.804657 62.251957,263.819092 66.273239,261.861389 
	C78.101135,256.103149 90.675461,254.684067 103.495827,257.304077 
	C127.770035,262.264709 142.319992,277.690460 148.815475,301.060791 
	C149.835236,304.729797 151.203506,305.747253 154.787155,305.722015 
	C175.282288,305.577637 195.778961,305.662476 216.275055,305.628143 
	C217.865234,305.625488 219.649963,306.140594 221.248611,304.199188 
	C220.427917,298.980011 219.147659,293.475189 218.818893,287.914093 
	C218.555542,283.459625 216.717850,282.265594 212.599396,282.308563 
	C197.770447,282.463196 182.938263,282.462524 168.108597,282.350403 
	C154.704590,282.249084 157.026443,284.247559 156.583038,270.587708 
	C156.437943,266.117859 157.718826,264.478302 162.423508,264.557037 
	C178.082840,264.819244 193.749359,264.678955 209.412903,264.627808 
	C211.160873,264.622070 213.083344,265.236816 214.737259,263.736938 
	C215.024475,257.916992 213.366226,252.286453 212.606186,246.566910 
	C210.732254,232.465271 208.596436,218.397476 206.435150,204.336166 
	C206.146759,202.459793 205.555954,200.550278 202.821167,200.303116 
	C193.267944,199.439789 183.736343,198.339478 174.193832,197.355270 
	C165.468109,196.455276 156.738922,195.589035 147.113342,194.506180 
M467.490784,299.071533 
	C462.571655,289.004913 455.286102,281.317200 444.695862,277.283447 
	C429.900146,271.647949 416.562775,274.498688 404.216827,284.246490 
	C393.592926,292.634583 387.423981,310.743927 391.192230,323.759430 
	C395.700134,339.329865 405.304688,349.808319 421.255463,353.708069 
	C436.117798,357.341766 449.291840,353.014648 459.410614,342.230286 
	C470.674225,330.225708 473.672913,315.658875 467.490784,299.071533 
M114.234596,347.743134 
	C118.275940,345.028564 121.829597,341.689423 124.578545,337.757751 
	C133.036011,325.661621 134.492432,312.160522 128.744431,298.973022 
	C122.067688,283.654755 109.409882,275.155853 92.493752,274.475891 
	C68.957169,273.529816 48.135178,296.409668 52.166904,320.429626 
	C57.085770,349.734894 88.934120,364.282745 114.234596,347.743134 
M223.967758,183.604874 
	C237.297897,184.948486 250.627930,186.293304 263.958221,187.635330 
	C276.793488,188.927567 289.607574,190.582535 302.474426,191.338409 
	C308.094116,191.668518 313.753265,193.478485 320.540894,192.086838 
	C307.614929,183.934311 295.781342,176.019882 282.665100,170.255981 
	C263.362976,161.773712 243.036911,158.653793 222.131912,158.365402 
	C218.933548,158.321289 218.040924,159.790482 218.508560,162.724014 
	C219.210754,167.128906 219.410629,171.653870 220.552185,175.933578 
	C221.225601,178.458145 220.084274,181.784515 223.967758,183.604874 
M172.476044,159.355438 
	C154.033951,159.438187 135.814972,161.545395 117.437576,164.314651 
	C120.320251,173.133087 122.089218,174.413605 129.659973,174.689880 
	C134.286804,174.858734 138.910172,175.291183 143.518616,175.765381 
	C161.928085,177.659698 180.331375,179.613953 198.736160,181.553528 
	C201.497101,181.844498 202.973465,180.730789 202.528519,177.870804 
	C201.742142,172.816193 200.591400,167.807861 200.031631,162.731796 
	C199.614120,158.945801 197.657394,158.136566 194.328751,158.345947 
	C187.378983,158.783127 180.417297,159.030685 172.476044,159.355438 
M31.799732,290.629364 
	C33.359016,291.679504 34.099094,293.924255 36.603699,293.904785 
	C38.357716,290.284149 40.105320,286.676697 42.052490,282.657349 
	C36.155735,282.269073 30.813250,282.149139 24.394258,282.786560 
	C27.114183,285.686554 29.213413,287.924744 31.799732,290.629364 
z"/>
<path fill="#000000" opacity="1.000000" stroke="none" 
	d="
M247.650406,234.916321 
	C247.655228,222.653580 247.655228,222.651306 259.576508,222.651398 
	C265.572021,222.651443 271.574158,222.834183 277.560638,222.604141 
	C281.334412,222.459137 282.349976,223.955688 282.408325,227.563141 
	C282.631348,241.350845 282.743591,241.349762 268.967957,241.349274 
	C263.805145,241.349091 258.622894,241.065964 253.485214,241.424072 
	C248.768265,241.752853 247.072968,239.853958 247.650406,234.916321 
z"/>
<path fill="#000000" opacity="1.000000" stroke="none" 
	d="
M368.146179,249.328766 
	C365.395081,249.401810 363.698517,248.798996 363.708679,246.080307 
	C363.722992,242.252609 363.707642,238.424820 363.721161,234.597122 
	C363.727417,232.827148 364.538696,231.783005 366.406158,231.742584 
	C366.904999,231.731766 367.403778,231.667313 367.901825,231.675369 
	C383.973175,231.935440 380.944855,229.218307 381.382141,244.915863 
	C381.482758,248.526794 379.936127,249.601776 376.616028,249.373230 
	C373.965149,249.190765 371.291779,249.335236 368.146179,249.328766 
z"/>
<path fill="#000000" opacity="1.000000" stroke="none" 
	d="
M135.993988,233.347076 
	C130.332260,233.342438 125.165268,233.219742 120.006691,233.375641 
	C116.742096,233.474304 115.571457,232.102493 115.637383,228.943222 
	C116.004707,211.341568 113.067909,215.086090 129.040710,214.673859 
	C134.699844,214.527832 140.369415,214.780304 146.028152,214.626892 
	C149.279022,214.538757 150.273163,215.848251 150.391632,219.025452 
	C150.925842,233.352325 151.011597,233.349121 135.993988,233.347076 
z"/>
<path fill="#000000" opacity="1.000000" stroke="none" 
	d="
M441.348114,337.699219 
	C430.671509,342.317657 418.238281,340.075073 411.630554,332.603455 
	C403.488922,323.397400 402.378937,310.596222 408.827057,300.271484 
	C414.267548,291.560303 424.999084,287.508514 436.374634,289.870758 
	C446.034729,291.876770 453.602844,299.718292 455.268768,309.355225 
	C457.498444,322.253632 452.215790,332.115540 441.348114,337.699219 
M435.830750,310.639587 
	C435.385712,310.169983 434.975281,309.660706 434.490051,309.237183 
	C430.978271,306.171783 427.713898,307.204132 424.940552,310.192383 
	C422.475494,312.848480 422.591339,315.872772 424.917053,318.669495 
	C427.420013,321.679382 430.609802,323.114777 433.971863,320.526123 
	C436.918427,318.257355 439.248962,315.236237 435.830750,310.639587 
z"/>
<path fill="#000000" opacity="1.000000" stroke="none" 
	d="
M89.493614,289.472443 
	C103.914612,288.438782 113.678154,296.359985 117.040619,309.656403 
	C119.972931,321.251831 112.363449,334.636505 101.205734,338.488525 
	C89.077026,342.675812 77.480469,339.235046 70.780533,329.461273 
	C64.340256,320.066284 64.946114,305.868103 72.827103,297.126404 
	C76.988136,292.510925 82.536446,289.656830 89.493614,289.472443 
M90.131111,307.621002 
	C88.621193,308.611145 86.979233,309.366241 86.001915,311.082245 
	C84.596428,313.550079 83.729485,315.914154 85.813171,318.426331 
	C88.032715,321.102264 90.762680,322.339844 94.203041,321.229187 
	C97.322548,320.222107 98.666985,317.804901 98.588715,314.707947 
	C98.464088,309.777039 95.336029,307.836792 90.131111,307.621002 
z"/>
</svg>