<svg xmlns="http://www.w3.org/2000/svg" xmlns:xlink="http://www.w3.org/1999/xlink" version="1.1" width="1000" height="1000" viewBox="0 0 1000 1000" xml:space="preserve">
<desc>Created with Fabric.js 3.5.0</desc>
<defs>
</defs>
<rect x="0" y="0" width="100%" height="100%" fill="#ffffff"/>
<g transform="matrix(2.1269 0 0 2.1269 499.999 499.999)" id="136695">
<path style="stroke: none; stroke-width: 1; stroke-dasharray: none; stroke-linecap: butt; stroke-dashoffset: 0; stroke-linejoin: miter; stroke-miterlimit: 4; is-custom-font: none; font-file-url: none; fill: rgb(0,0,0); fill-rule: nonzero; opacity: 1;" vector-effect="non-scaling-stroke" transform=" translate(-256, -256)" d="M 256 48 C 141.1 48 48 141.1 48 256 s 93.1 208 208 208 c 114.9 0 208 -93.1 208 -208 S 370.9 48 256 48 z M 256 446.7 c -105.1 0 -190.7 -85.5 -190.7 -190.7 c 0 -105.1 85.5 -190.7 190.7 -190.7 c 105.1 0 190.7 85.5 190.7 190.7 C 446.7 361.1 361.1 446.7 256 446.7 z" stroke-linecap="round"/>
</g>
<g transform="matrix(1 0 0 1 498.8589 500)" style="" id="840783">
		
<path xml:space="preserve" font-family="Roboto" font-size="500" font-style="normal" font-weight="bold" style="stroke: none; stroke-width: 1; stroke-dasharray: none; stroke-linecap: butt; stroke-dashoffset: 0; stroke-linejoin: miter; stroke-miterlimit: 4; is-custom-font: none; font-file-url: none; fill: rgb(0,0,0); fill-rule: nonzero; opacity: 1; white-space: pre;" d="M144.65-198.40L144.65-139.07L35.77-139.07L35.77 157.07L-37.48 157.07L-37.48-139.07L-144.90-139.07L-144.90-198.40L144.65-198.40Z"/></g>
</svg>