<svg xmlns="http://www.w3.org/2000/svg" xmlns:xlink="http://www.w3.org/1999/xlink" version="1.1" width="1000" height="1000" viewBox="0 0 1000 1000" xml:space="preserve">
<desc>Created with Fabric.js 3.5.0</desc>
<defs>
</defs>
<rect x="0" y="0" width="100%" height="100%" fill="#ffffff"/>
<g transform="matrix(2.1269 0 0 2.1269 499.999 499.999)" id="136695">
<path style="stroke: none; stroke-width: 1; stroke-dasharray: none; stroke-linecap: butt; stroke-dashoffset: 0; stroke-linejoin: miter; stroke-miterlimit: 4; is-custom-font: none; font-file-url: none; fill: rgb(0,0,0); fill-rule: nonzero; opacity: 1;" vector-effect="non-scaling-stroke" transform=" translate(-256, -256)" d="M 256 48 C 141.1 48 48 141.1 48 256 s 93.1 208 208 208 c 114.9 0 208 -93.1 208 -208 S 370.9 48 256 48 z M 256 446.7 c -105.1 0 -190.7 -85.5 -190.7 -190.7 c 0 -105.1 85.5 -190.7 190.7 -190.7 c 105.1 0 190.7 85.5 190.7 190.7 C 446.7 361.1 361.1 446.7 256 446.7 z" stroke-linecap="round"/>
</g>
<g transform="matrix(1 0 0 1 498.8589 500)" style="" id="840783">
		
<path xml:space="preserve" font-family="Roboto" font-size="500" font-style="normal" font-weight="bold" style="stroke: none; stroke-width: 1; stroke-dasharray: none; stroke-linecap: butt; stroke-dashoffset: 0; stroke-linejoin: miter; stroke-miterlimit: 4; is-custom-font: none; font-file-url: none; fill: rgb(0,0,0); fill-rule: nonzero; opacity: 1; white-space: pre;" d="M22.83 47.94L-39.67 47.94Q-39.67 13.76-31.37-6.50Q-23.07-26.77-0.98-46.42Q21.12-66.07 28.44-78.40Q35.77-90.73 35.77-104.40L35.77-104.40Q35.77-145.66-2.32-145.66L-2.32-145.66Q-20.39-145.66-31.25-134.56Q-42.11-123.45-42.60-103.92L-42.60-103.92L-113.40-103.92Q-112.91-150.55-83.25-176.91Q-53.59-203.28-2.32-203.28L-2.32-203.28Q49.44-203.28 78.00-178.26Q106.57-153.23 106.57-107.58L106.57-107.58Q106.57-86.83 97.29-68.39Q88.01-49.96 64.82-27.50L64.82-27.50L45.04-8.70Q26.49 9.12 23.80 33.05L23.80 33.05L22.83 47.94ZM-46.75 122.89L-46.75 122.89Q-46.75 106.53-35.64 95.91Q-24.54 85.29-7.20 85.29Q10.13 85.29 21.24 95.91Q32.35 106.53 32.35 122.89L32.35 122.89Q32.35 139.00 21.48 149.50Q10.62 160.00-7.20 160.00Q-25.02 160.00-35.89 149.50Q-46.75 139.00-46.75 122.89Z"/></g>
</svg>